<svg width="300" height="200" viewBox="0 0 300 200" xmlns="http://www.w3.org/2000/svg">
  <!-- Left page (cover) -->
  <path d="M50,30 L50,170 C50,185 70,185 80,170 L80,30 C70,15 50,15 50,30 Z" fill="#8B4513" stroke="#5D2906" stroke-width="2"/>
  
  <!-- Right page (cover) -->
  <path d="M250,30 L250,170 C250,185 230,185 220,170 L220,30 C230,15 250,15 250,30 Z" fill="#8B4513" stroke="#5D2906" stroke-width="2"/>
  
  <!-- Left pages -->
  <path d="M80,30 L150,40 L150,160 L80,170 Z" fill="#F8F8F8" stroke="#DDD" stroke-width="1"/>
  
  <!-- Right pages -->
  <path d="M220,30 L150,40 L150,160 L220,170 Z" fill="#F8F8F8" stroke="#DDD" stroke-width="1"/>
  
  <!-- Left page lines -->
  <line x1="90" y1="50" x2="140" y2="55" stroke="#DDD" stroke-width="1"/>
  <line x1="90" y1="65" x2="140" y2="70" stroke="#DDD" stroke-width="1"/>
  <line x1="90" y1="80" x2="140" y2="85" stroke="#DDD" stroke-width="1"/>
  <line x1="90" y1="95" x2="140" y2="100" stroke="#DDD" stroke-width="1"/>
  <line x1="90" y1="110" x2="140" y2="115" stroke="#DDD" stroke-width="1"/>
  <line x1="90" y1="125" x2="140" y2="130" stroke="#DDD" stroke-width="1"/>
  <line x1="90" y1="140" x2="140" y2="145" stroke="#DDD" stroke-width="1"/>
  <line x1="90" y1="155" x2="140" y2="160" stroke="#DDD" stroke-width="1"/>
  
  <!-- Right page lines -->
  <line x1="160" y1="55" x2="210" y2="50" stroke="#DDD" stroke-width="1"/>
  <line x1="160" y1="70" x2="210" y2="65" stroke="#DDD" stroke-width="1"/>
  <line x1="160" y1="85" x2="210" y2="80" stroke="#DDD" stroke-width="1"/>
  <line x1="160" y1="100" x2="210" y2="95" stroke="#DDD" stroke-width="1"/>
  <line x1="160" y1="115" x2="210" y2="110" stroke="#DDD" stroke-width="1"/>
  <line x1="160" y1="130" x2="210" y2="125" stroke="#DDD" stroke-width="1"/>
  <line x1="160" y1="145" x2="210" y2="140" stroke="#DDD" stroke-width="1"/>
  <line x1="160" y1="160" x2="210" y2="155" stroke="#DDD" stroke-width="1"/>
  
  <!-- Book spine -->
  <path d="M50,30 L80,30 C90,30 90,170 80,170 L50,170 Z" fill="#5D2906"/>

  <!-- Perfectly Centered Audio Wave -->
  <path d="M30,100 
           C80,30 100,170 150,100 
           C200,30 220,170 270,100"
        stroke="#7e57c2" stroke-width="6" fill="none" stroke-linecap="round"/>
</svg>